 <svg  version="1.0" xmlns="http://www.w3.org/2000/svg"  width="900.000000pt" height="225.000000pt" viewBox="0 0 900.000000 225.000000"  preserveAspectRatio="xMidYMid meet">  <g transform="translate(0.000000,225.000000) scale(0.100000,-0.100000)" fill="#ffffff" stroke="none"> <path d="M1849 2043 c-72 -81 -244 -193 -294 -193 -22 0 -69 -26 -125 -70 -52 -40 -64 -53 -85 -97 -9 -18 -20 -35 -25 -38 -6 -3 -10 -17 -10 -31 0 -14 -6 -35 -14 -47 -12 -18 -22 -113 -17 -165 2 -30 247 12 343 59 107 52 194 130 239 214 40 76 50 128 47 265 -2 83 -7 135 -14 137 -6 2 -26 -14 -45 -34z m31 -149 c0 -89 -2 -100 -36 -170 -20 -41 -54 -94 -76 -119 -37 -42 -127 -103 -173 -118 -11 -3 -54 -17 -95 -31 -80 -28 -150 -34 -150 -13 1 22 135 98 199 112 34 7 39 16 16 35 -17 14 -45 4 -94 -32 -26 -20 -51 -10 -51 21 -1 9 -7 3 -15 -14 -30 -62 -70 -109 -85 -100 -15 9 -12 90 4 122 8 15 22 45 32 65 35 72 108 130 214 172 8 3 22 10 30 14 8 5 33 17 55 28 65 29 189 106 198 121 18 30 27 -2 27 -93z"/> <path d="M1651 1768 c0 -9 -14 -37 -31 -61 -48 -72 -39 -85 27 -39 53 37 74 50 101 64 31 16 28 28 -8 28 -17 0 -33 -7 -38 -17 -13 -21 -39 -10 -45 19 -2 14 -5 16 -6 6z"/> <path d="M1437 1640 c-3 -11 -1 -20 4 -20 5 0 9 2 9 4 0 2 3 11 6 20 3 9 2 16 -4 16 -5 0 -12 -9 -15 -20z"/> <path d="M889 1969 c-14 -27 -15 -77 -1 -184 10 -89 44 -163 97 -218 37 -38 106 -77 136 -77 11 0 30 -6 42 -14 12 -8 36 -16 52 -18 l30 -3 3 85 c2 58 -1 95 -11 115 -7 17 -22 48 -33 70 -20 42 -129 155 -150 155 -7 0 -14 3 -16 8 -1 4 -19 18 -38 31 -19 14 -49 35 -67 48 l-32 24 -12 -22z m243 -188 c28 -30 55 -68 60 -83 6 -16 14 -28 19 -28 5 0 9 -27 9 -60 0 -47 -5 -68 -22 -90 -21 -29 -48 -40 -48 -20 0 5 -12 13 -27 16 -26 6 -86 48 -123 84 -60 60 -100 177 -91 270 7 73 13 74 96 18 42 -28 99 -76 127 -107z"/> <path d="M1090 1653 c0 -19 87 -109 96 -100 3 3 3 24 -1 46 -6 34 -11 41 -30 41 -12 0 -25 7 -29 15 -8 21 -36 19 -36 -2z"/> <path d="M3290 1715 c0 -8 7 -15 15 -15 8 0 15 7 15 15 0 8 -7 15 -15 15 -8 0 -15 -7 -15 -15z"/> <path d="M4100 1715 c0 -8 7 -15 15 -15 8 0 15 7 15 15 0 8 -7 15 -15 15 -8 0 -15 -7 -15 -15z"/> <path d="M4157 1724 c-9 -10 2 -24 19 -24 8 0 14 7 14 15 0 15 -21 21 -33 9z"/> <path d="M4430 1716 c0 -9 7 -16 16 -16 17 0 14 22 -4 28 -7 2 -12 -3 -12 -12z"/> <path d="M5515 1720 c-8 -13 4 -32 16 -25 12 8 12 35 0 35 -6 0 -13 -4 -16 -10z"/> <path d="M5572 1716 c1 -10 8 -17 13 -17 15 1 12 24 -3 29 -9 3 -13 -2 -10 -12z"/> <path d="M5992 1718 c5 -15 28 -18 29 -3 0 6 -7 12 -17 13 -10 3 -15 -1 -12 -10z"/> <path d="M6616 1721 c-3 -5 1 -14 8 -20 16 -13 32 2 21 19 -8 12 -22 13 -29 1z"/> <path d="M7560 1714 c0 -17 22 -14 28 4 2 7 -3 12 -12 12 -9 0 -16 -7 -16 -16z"/> <path d="M8580 1715 c0 -16 16 -20 24 -6 3 5 -1 11 -9 15 -9 3 -15 0 -15 -9z"/> <path d="M4857 1714 c-4 -4 -7 -61 -7 -126 0 -91 3 -119 13 -116 8 3 13 38 15 118 2 104 -4 141 -21 124z"/> <path d="M5191 1693 c0 -25 1 -26 9 -8 12 27 12 35 0 35 -5 0 -10 -12 -9 -27z"/> <path d="M5686 1704 c-3 -9 -6 -52 -6 -95 0 -96 -10 -119 -50 -119 -37 0 -44 12 -50 85 -4 44 -9 60 -20 60 -11 0 -16 -17 -20 -70 -5 -70 -5 -70 -35 -70 -27 0 -31 5 -45 51 -17 59 -32 80 -71 100 -35 18 -49 18 -49 1 0 -7 15 -20 33 -28 35 -15 63 -75 51 -111 -5 -17 -14 -18 -77 -16 l-72 3 -5 63 c-5 61 -17 81 -47 82 -17 0 -16 -15 2 -30 20 -16 19 -70 -1 -98 -31 -45 -64 -16 -64 57 0 23 5 41 10 41 6 0 10 9 10 20 0 27 -15 25 -39 -6 -15 -20 -21 -41 -21 -81 0 -45 -3 -54 -16 -51 -21 4 -31 23 -39 71 -8 52 -29 42 -33 -16 -5 -77 -5 -77 344 -77 l299 -1 23 26 c19 23 22 37 22 110 0 84 -5 115 -20 115 -4 0 -11 -7 -14 -16z"/> <path d="M7347 1713 c-4 -3 -7 -53 -7 -109 0 -58 -4 -106 -10 -109 -33 -20 3 -25 163 -23 l172 3 3 24 c10 65 -40 151 -87 151 -25 0 -18 -26 9 -35 21 -7 53 -75 48 -101 -3 -16 -13 -19 -73 -19 l-70 0 -5 109 c-3 75 -9 111 -17 114 -14 4 -14 0 -14 -113 0 -77 -17 -115 -49 -115 -31 0 -40 32 -40 134 0 88 -5 108 -23 89z"/> <path d="M7856 1704 c-3 -9 -6 -53 -6 -99 0 -99 -5 -115 -35 -115 -31 0 -35 15 -35 127 0 85 -2 94 -17 91 -15 -3 -19 -18 -23 -108 -3 -58 -9 -111 -13 -117 -6 -10 6 -13 53 -13 98 0 100 2 100 130 0 101 -9 142 -24 104z"/> <path d="M7945 1709 c-10 -26 -1 -234 10 -232 13 4 19 223 6 236 -7 7 -12 5 -16 -4z"/> <path d="M4770 1626 c0 -109 -11 -138 -48 -134 -24 3 -27 7 -27 43 -1 91 -47 136 -110 109 -35 -14 -41 -28 -47 -114 -3 -31 -6 -35 -35 -38 -36 -4 -41 5 -45 91 -4 68 -22 63 -28 -8 -6 -75 -13 -85 -55 -85 -38 0 -43 8 -48 90 -2 37 -6 45 -22 45 -17 0 -19 -6 -17 -38 2 -20 1 -51 -3 -67 -5 -25 -12 -30 -35 -30 -32 0 -40 18 -40 98 0 49 -2 52 -25 52 -25 0 -35 -23 -15 -35 6 -4 9 -14 6 -23 -2 -10 -7 -34 -11 -54 -4 -29 -11 -38 -25 -38 -25 0 -40 29 -40 79 0 28 5 43 17 50 24 13 10 25 -22 17 -23 -6 -25 -10 -25 -70 0 -95 -11 -92 335 -96 160 -2 306 -3 325 -2 55 2 70 28 70 127 0 86 -5 115 -21 115 -5 0 -9 -38 -9 -84z m-120 -67 c1 -89 -63 -91 -68 -1 -3 43 0 53 20 66 21 15 23 15 35 -7 7 -12 12 -38 13 -58z"/> <path d="M5775 1700 c-9 -15 -18 -168 -11 -196 4 -13 13 -24 21 -24 12 0 15 19 15 109 0 101 -8 138 -25 111z"/> <path d="M6283 1693 c-5 -10 -8 -55 -8 -101 2 -123 5 -125 181 -122 77 1 168 2 204 1 92 -3 104 12 108 128 3 86 -6 120 -27 107 -7 -4 -11 -39 -11 -86 0 -97 -13 -130 -51 -130 -32 0 -39 14 -39 86 0 47 -2 54 -20 54 -17 0 -20 -7 -20 -47 0 -76 -8 -95 -38 -91 -22 2 -30 13 -47 58 -26 73 -30 78 -72 95 -51 21 -64 3 -16 -22 31 -17 39 -27 46 -62 13 -66 8 -71 -72 -71 -87 0 -91 6 -91 124 0 83 -11 114 -27 79z"/> <path d="M2625 1648 c-36 -21 -43 -41 -47 -135 -3 -71 -8 -96 -22 -112 -17 -19 -17 -21 -2 -27 27 -10 43 3 53 43 8 37 10 38 58 43 l50 5 3 77 3 78 -33 20 c-38 23 -37 23 -63 8z m65 -104 c0 -55 -14 -71 -51 -59 -15 5 -19 16 -19 55 0 27 5 61 12 75 l11 25 24 -22 c18 -17 23 -32 23 -74z"/> <path d="M2946 1635 c-24 -22 -26 -31 -26 -102 0 -59 -5 -89 -20 -118 -25 -48 -25 -47 1 -43 19 3 41 31 53 71 4 12 16 17 44 17 51 0 62 14 61 80 -1 70 -8 87 -43 105 -37 19 -38 19 -70 -10z m71 -35 c35 -70 -4 -152 -50 -105 -14 13 -14 82 -1 123 6 21 37 10 51 -18z"/> <path d="M3270 1646 c0 -9 11 -23 24 -32 28 -17 40 -58 30 -98 -5 -20 -12 -26 -34 -26 -16 0 -32 -4 -35 -10 -10 -16 52 -12 85 5 35 18 38 40 14 101 -14 37 -24 47 -76 72 -5 2 -8 -3 -8 -12z"/> <path d="M5989 1644 c-29 -15 -45 -73 -33 -120 12 -47 96 -71 127 -36 32 35 16 144 -22 155 -9 3 -23 7 -31 10 -8 3 -27 -1 -41 -9z m61 -33 c20 -38 8 -121 -18 -121 -40 0 -61 108 -24 129 24 15 30 14 42 -8z"/> <path d="M8180 1645 c-33 -19 -38 -36 -39 -131 -1 -54 -6 -86 -16 -100 -34 -45 -1 -63 34 -18 12 15 21 35 21 44 0 15 14 19 93 24 50 4 139 6 196 4 102 -2 104 -2 127 25 19 22 24 40 24 83 0 47 -2 54 -20 54 -17 0 -20 -7 -20 -44 0 -68 -14 -96 -48 -96 -34 0 -52 16 -52 48 0 48 -54 112 -94 112 -20 0 -10 -27 14 -35 23 -7 54 -77 45 -104 -6 -20 -12 -22 -78 -19 l-72 3 -3 35 c-4 60 -12 81 -39 106 -29 27 -37 28 -73 9z m60 -34 c15 -29 12 -107 -5 -121 -8 -6 -23 -9 -35 -5 -17 5 -20 15 -20 64 0 56 11 81 37 81 7 0 17 -9 23 -19z"/> <path d="M3686 1633 c-3 -3 -6 -47 -6 -97 -1 -74 -4 -95 -19 -113 -45 -54 -91 -5 -91 95 0 59 -25 92 -36 47 -3 -14 -4 -49 -2 -76 12 -123 120 -160 170 -59 20 40 49 50 116 42 64 -7 82 14 82 95 0 47 -4 63 -14 63 -10 0 -15 -18 -18 -65 -4 -72 -11 -84 -36 -69 -12 8 -18 28 -20 73 -3 52 -6 61 -22 61 -17 0 -19 -9 -22 -67 -3 -57 -6 -68 -22 -71 -27 -5 -36 15 -36 80 0 53 -9 76 -24 61z"/> <path d="M7069 1633 c-14 -3 -17 -20 -18 -95 -1 -97 -15 -138 -50 -138 -35 0 -50 32 -53 109 -2 50 -7 76 -16 79 -10 3 -12 -17 -10 -88 l3 -92 37 -21 c35 -21 37 -21 72 -4 20 9 36 23 36 32 0 35 37 55 104 55 58 0 67 3 85 26 42 54 12 144 -49 144 l-28 0 29 -29 c30 -31 37 -67 19 -102 -9 -15 -22 -19 -70 -19 -66 0 -77 13 -65 76 5 27 13 37 40 49 19 7 35 16 35 19 0 7 -77 6 -101 -1z"/> <path d="M6184 1542 c1 -101 -13 -142 -50 -142 -27 0 -42 -18 -21 -25 19 -8 61 10 86 36 18 20 21 35 21 121 0 89 -2 98 -18 98 -17 0 -19 -9 -18 -88z"/> <path d="M3140 1496 c0 -8 4 -17 9 -20 10 -7 23 19 14 28 -11 11 -23 6 -23 -8z"/> <path d="M3440 1496 c0 -8 4 -17 9 -20 10 -7 23 19 14 28 -11 11 -23 6 -23 -8z"/> <path d="M4310 1405 c0 -8 7 -15 15 -15 8 0 15 7 15 15 0 8 -7 15 -15 15 -8 0 -15 -7 -15 -15z"/> <path d="M6420 1410 c0 -5 7 -10 15 -10 8 0 15 5 15 10 0 6 -7 10 -15 10 -8 0 -15 -4 -15 -10z"/> <path d="M8390 1405 c0 -8 4 -15 9 -15 5 0 11 7 15 15 3 9 0 15 -9 15 -8 0 -15 -7 -15 -15z"/> <path d="M892 1308 c-4 -13 -5 -161 -2 -330 l5 -307 39 -46 c22 -25 49 -58 60 -74 12 -15 26 -30 31 -32 6 -3 12 49 15 136 3 88 9 138 15 135 10 -4 27 -45 47 -110 5 -19 14 -39 18 -45 4 -5 10 -21 13 -35 8 -35 35 -111 48 -134 6 -11 14 -58 16 -105 5 -85 6 -86 58 -156 29 -38 65 -81 79 -94 l26 -24 0 609 c0 461 -3 613 -12 622 -7 7 -38 12 -70 12 -80 0 -81 -3 -77 -219 4 -169 3 -175 -14 -158 -9 9 -29 52 -42 95 -14 42 -29 86 -34 97 -5 11 -19 49 -31 85 -30 92 -40 100 -117 100 -57 0 -64 -2 -71 -22z"/> <path d="M1462 1318 c-15 -15 -18 -1228 -2 -1228 10 0 90 116 90 131 0 5 4 9 9 9 4 0 16 19 25 43 13 34 16 80 16 220 l0 176 65 73 c36 39 65 75 65 80 0 4 7 8 15 8 13 0 15 -24 15 -159 0 -88 4 -162 9 -165 5 -4 20 11 32 31 13 21 41 58 62 83 67 76 67 78 67 394 0 245 -2 287 -16 300 -13 14 -48 16 -228 16 -151 0 -215 -3 -224 -12z m244 -158 l54 0 0 -53 c0 -51 -1 -53 -69 -121 -38 -37 -74 -65 -80 -61 -7 4 -11 50 -11 120 0 114 5 130 38 119 8 -2 38 -4 68 -4z"/> <path d="M2566 1135 c-13 -13 -15 -48 -11 -238 2 -122 4 -225 4 -229 1 -5 19 -8 41 -8 l40 0 0 145 c0 137 1 145 20 145 10 0 25 -10 31 -22 7 -13 33 -48 58 -78 25 -31 62 -76 81 -100 66 -83 75 -90 114 -90 l36 0 0 235 0 235 -26 12 c-18 9 -30 9 -42 1 -14 -9 -17 -32 -19 -152 -1 -79 -4 -145 -6 -148 -11 -10 -37 14 -93 87 -32 41 -61 77 -64 80 -3 3 -21 25 -39 50 -39 51 -81 90 -98 90 -6 0 -18 -7 -27 -15z"/> <path d="M3212 1138 c-6 -6 -12 -20 -12 -29 0 -10 -4 -20 -9 -24 -5 -3 -12 -19 -16 -36 -4 -17 -13 -42 -21 -57 -8 -15 -14 -32 -14 -38 0 -7 -7 -25 -15 -40 -8 -16 -15 -37 -15 -46 0 -9 -4 -19 -10 -23 -5 -3 -14 -20 -19 -38 -5 -18 -19 -57 -30 -87 -12 -30 -21 -56 -21 -57 0 -2 17 -3 39 -3 43 0 58 13 67 58 11 53 31 63 125 60 l83 -3 22 -55 c18 -46 27 -56 52 -61 17 -3 36 -3 42 1 12 7 4 56 -11 66 -5 3 -9 13 -9 22 0 9 -6 29 -14 44 -8 15 -17 40 -21 57 -4 17 -11 33 -16 36 -5 4 -9 14 -9 23 0 9 -7 30 -15 46 -8 15 -15 33 -15 38 0 11 -21 61 -48 118 -13 27 -24 36 -47 38 -17 2 -36 -3 -43 -10z m57 -144 c12 -19 21 -42 21 -51 0 -8 7 -27 16 -43 27 -45 14 -60 -56 -60 -71 0 -72 4 -39 102 11 35 22 69 24 76 6 18 11 15 34 -24z"/> <path d="M3712 1138 c-8 -8 -12 -51 -12 -127 0 -64 -5 -145 -10 -181 -12 -86 -32 -103 -115 -98 l-60 3 -3 -31 c-3 -28 1 -33 29 -43 79 -27 179 1 214 61 17 29 20 57 23 216 5 189 1 212 -37 212 -9 0 -22 -5 -29 -12z"/> <path d="M3971 1018 c-29 -73 -58 -149 -66 -168 -7 -19 -25 -63 -39 -98 -35 -85 -34 -92 13 -92 34 0 41 4 55 34 9 19 16 40 16 48 0 29 24 38 101 38 86 0 109 -6 109 -26 0 -8 8 -32 17 -53 14 -33 22 -40 52 -44 47 -6 56 4 38 44 -14 32 -30 74 -61 157 -51 133 -61 158 -68 167 -4 5 -8 15 -8 23 0 8 -10 34 -22 58 -19 38 -26 44 -53 44 -32 0 -32 -1 -84 -132z m124 -73 c37 -104 37 -105 -40 -105 -43 0 -65 4 -65 12 0 13 18 71 31 103 5 11 13 33 19 49 14 38 23 28 55 -59z"/> <path d="M4366 1137 c-15 -11 -16 -36 -14 -242 l3 -230 40 0 40 0 0 147 c0 186 10 188 90 20 29 -61 46 -84 63 -89 13 -3 27 -2 32 3 5 5 33 56 63 114 30 58 59 104 63 103 5 -2 10 -70 12 -153 l3 -150 39 0 40 0 0 240 c0 265 2 258 -63 246 -31 -6 -38 -15 -97 -132 -36 -69 -70 -130 -77 -135 -13 -11 -16 -6 -89 141 -24 47 -49 94 -57 104 -17 23 -67 30 -91 13z"/> <path d="M5230 1118 c-11 -18 -20 -38 -20 -45 0 -7 -6 -27 -14 -45 -8 -18 -21 -49 -30 -70 -9 -20 -16 -41 -16 -47 0 -6 -6 -25 -14 -43 -8 -18 -21 -49 -30 -70 -9 -20 -16 -40 -16 -46 0 -5 -7 -23 -15 -38 -24 -47 -20 -56 26 -52 40 3 42 5 63 58 l22 55 89 0 89 0 15 -30 c7 -16 19 -41 25 -55 9 -20 20 -26 54 -28 23 -2 42 -2 42 0 0 2 -8 26 -19 53 -10 28 -31 84 -46 125 -16 41 -32 79 -37 85 -4 5 -8 15 -8 23 0 8 -6 28 -14 45 -7 18 -24 57 -36 87 -25 60 -34 70 -68 70 -15 0 -29 -11 -42 -32z m77 -143 c46 -127 44 -135 -37 -135 -78 0 -78 -1 -16 143 20 46 33 44 53 -8z"/> <path d="M5571 1136 c-8 -9 -11 -82 -9 -242 l3 -229 165 0 165 0 3 33 c2 21 -1 32 -10 33 -7 0 -58 0 -113 0 -55 -1 -107 3 -115 8 -12 8 -14 44 -15 201 0 158 -3 192 -15 200 -21 14 -46 12 -59 -4z"/> <path d="M6100 1104 c-11 -26 -20 -50 -20 -54 0 -4 -7 -21 -15 -36 -8 -16 -15 -36 -15 -44 0 -9 -4 -20 -9 -25 -4 -6 -13 -23 -19 -40 -6 -16 -20 -55 -32 -85 -36 -93 -50 -134 -50 -147 0 -8 14 -13 38 -13 34 0 39 3 55 40 9 22 17 46 17 54 0 20 23 26 101 26 74 0 109 -11 109 -35 0 -8 7 -30 16 -49 14 -27 24 -35 51 -38 40 -5 54 13 35 43 -7 10 -12 24 -12 30 0 6 -6 25 -14 42 -19 44 -40 99 -93 242 -45 121 -55 135 -89 135 -30 0 -35 -5 -54 -46z m70 -95 c0 -6 6 -25 13 -42 25 -58 38 -107 32 -117 -3 -5 -33 -10 -66 -10 -69 0 -71 4 -38 90 11 30 23 63 26 73 6 19 33 24 33 6z"/> <path d="M6447 1144 c-4 -4 -7 -115 -7 -246 l0 -238 39 0 39 0 4 74 c3 62 7 79 27 100 35 37 54 32 88 -21 16 -27 49 -72 72 -100 37 -48 45 -53 81 -53 22 0 40 5 40 10 0 6 -40 64 -90 130 -49 66 -90 124 -90 129 0 6 12 23 28 39 15 16 38 42 52 58 14 16 40 46 58 67 17 21 32 42 32 47 0 6 -16 10 -36 10 -29 0 -44 -8 -73 -37 -41 -42 -133 -148 -155 -178 -8 -11 -18 -16 -23 -12 -4 5 -10 57 -13 115 l-5 107 -30 3 c-17 2 -34 0 -38 -4z"/> <path d="M6921 1136 c-8 -9 -11 -82 -9 -242 l3 -229 40 0 40 0 1 93 c0 51 5 97 11 103 6 6 53 9 114 7 l104 -3 5 -100 5 -100 38 -3 37 -3 0 241 c0 262 -1 266 -56 242 -23 -11 -24 -16 -24 -102 0 -49 -3 -90 -7 -91 -52 -5 -192 -7 -205 -3 -15 5 -18 18 -18 89 0 63 -4 88 -16 99 -19 20 -48 21 -63 2z"/> <path d="M7436 1143 c-3 -4 -6 -114 -6 -245 l0 -238 166 0 165 0 -3 37 -3 38 -111 -3 c-79 -3 -114 0 -119 8 -4 7 -7 92 -6 191 1 104 -2 186 -8 197 -10 18 -61 28 -75 15z"/> <path d="M7961 1117 c-11 -19 -21 -39 -21 -45 0 -6 -6 -26 -14 -44 -8 -18 -22 -53 -31 -78 -10 -25 -24 -59 -31 -77 -8 -17 -14 -35 -14 -41 0 -5 -7 -23 -15 -38 -8 -16 -15 -36 -15 -44 0 -8 -7 -24 -15 -34 -8 -11 -15 -28 -15 -38 0 -16 7 -19 41 -16 39 3 42 5 64 58 l23 55 88 0 c98 0 86 8 128 -85 9 -20 20 -26 54 -28 41 -3 51 4 34 24 -5 5 -19 42 -31 82 -13 40 -27 75 -32 78 -5 3 -9 12 -9 21 0 8 -7 31 -16 51 -9 21 -22 52 -30 70 -8 18 -14 37 -14 43 0 8 -38 100 -44 105 0 1 -15 5 -32 8 -28 6 -34 3 -53 -27z m72 -138 c5 -19 13 -39 18 -45 5 -6 10 -29 12 -50 l2 -39 -62 -3 c-57 -3 -63 -1 -63 17 0 11 7 37 16 58 49 114 61 124 77 62z"/> <path d="M8372 1133 c-54 -19 -93 -68 -99 -126 -5 -38 -1 -48 27 -80 18 -21 38 -37 45 -37 7 0 26 -7 41 -15 16 -8 38 -15 49 -15 11 0 38 -11 60 -23 32 -18 40 -28 40 -52 0 -41 -34 -57 -104 -49 -30 3 -64 12 -75 19 -12 7 -33 15 -47 19 -21 4 -28 1 -38 -20 -16 -37 0 -59 60 -78 118 -39 208 -29 266 29 29 29 33 39 33 88 0 48 -4 59 -30 85 -26 26 -137 72 -175 72 -20 0 -65 40 -65 58 1 9 9 27 19 40 15 17 29 22 68 22 26 -1 59 -7 73 -15 36 -21 68 -18 81 6 16 30 -13 56 -82 74 -65 18 -90 17 -147 -2z"/> <path d="M2542 338 l3 -223 3054 -3 c1680 -1 3059 2 3063 6 7 7 12 277 8 432 0 7 -1029 10 -3065 10 l-3065 0 2 -222z m753 138 c38 -16 85 -82 85 -120 0 -36 -27 -88 -58 -111 -20 -15 -43 -20 -84 -20 -53 0 -61 3 -94 37 -34 33 -37 41 -37 93 0 47 4 60 27 84 45 46 105 60 161 37z m209 -60 c13 -28 27 -64 30 -79 6 -24 9 -27 21 -17 8 7 17 22 21 33 20 67 55 127 73 127 26 0 34 -15 22 -37 -19 -34 -81 -186 -81 -199 0 -6 -10 -14 -22 -17 -25 -7 -54 14 -64 47 -6 20 -29 75 -60 143 -17 38 -17 46 -2 61 17 17 34 -1 62 -62z m1024 -70 c-3 -113 -4 -121 -23 -121 -19 0 -20 8 -23 119 -3 124 6 158 35 135 10 -9 13 -39 11 -133z m495 133 c31 -8 38 -14 35 -32 -2 -17 -8 -21 -28 -18 -59 9 -84 6 -88 -11 -2 -12 6 -22 25 -29 102 -41 122 -67 99 -124 -12 -27 -22 -35 -50 -41 -68 -12 -136 14 -136 53 0 12 7 14 33 8 17 -3 48 -7 67 -8 28 -2 35 2 35 16 0 13 -13 23 -39 32 -57 20 -91 48 -94 79 -5 41 33 74 98 85 3 1 22 -4 43 -10z m977 -68 c12 -25 35 -74 52 -109 22 -44 28 -66 21 -73 -17 -17 -50 -1 -57 26 -6 23 -11 25 -71 25 -60 0 -65 -2 -71 -25 -7 -27 -40 -43 -57 -26 -7 7 0 30 23 78 18 37 40 84 49 103 9 19 24 45 35 57 18 21 21 22 37 7 10 -9 28 -37 39 -63z m1143 57 c27 -14 17 -44 -13 -40 -66 7 -88 5 -113 -13 -21 -16 -26 -28 -27 -61 0 -56 32 -87 86 -82 36 3 39 6 44 38 4 27 10 36 28 38 20 3 22 -1 22 -40 0 -68 -16 -83 -93 -83 -59 0 -69 3 -96 29 -82 79 -53 200 54 224 41 10 76 6 108 -10z m297 -104 l0 -93 53 -3 c44 -3 52 -6 52 -23 0 -17 -8 -20 -54 -23 -103 -6 -101 -9 -101 126 0 80 4 122 12 130 25 25 38 -16 38 -114z m898 105 c15 -6 22 -17 22 -34 0 -30 -19 -32 -60 -9 -80 48 -160 -61 -96 -130 24 -27 79 -36 91 -16 9 15 65 12 65 -3 0 -31 -41 -52 -100 -52 -48 0 -63 4 -85 25 -55 51 -67 98 -39 153 40 77 110 100 202 66z m-5470 -36 c21 -27 47 -60 57 -75 30 -48 44 -36 47 45 3 66 5 72 26 75 l23 3 -3 -128 c-3 -117 -5 -128 -22 -131 -20 -4 -52 27 -109 106 -17 23 -34 42 -38 42 -5 0 -9 -30 -11 -67 -3 -66 -4 -68 -30 -71 l-28 -3 0 119 c0 65 3 122 7 125 17 17 44 3 81 -40z m1059 31 c8 -22 -15 -35 -62 -33 -63 1 -65 1 -65 -26 0 -24 3 -25 54 -25 36 0 56 -4 59 -13 9 -25 -8 -36 -58 -39 -46 -3 -50 -5 -53 -30 -3 -28 -3 -28 55 -28 63 0 90 -14 72 -37 -14 -16 -141 -18 -170 -3 -17 10 -19 22 -19 124 0 62 3 116 7 119 3 4 44 7 90 7 67 0 85 -3 90 -16z m131 4 c8 -8 12 -46 12 -105 l0 -93 43 0 c49 0 73 -16 56 -37 -12 -13 -95 -18 -136 -7 -22 6 -23 10 -23 123 0 65 3 121 7 124 10 11 28 8 41 -5z m345 -2 c7 -17 -18 -41 -32 -32 -5 3 -16 3 -25 0 -13 -5 -16 -23 -16 -99 0 -69 -4 -96 -15 -105 -27 -23 -35 0 -35 101 l0 99 -27 0 c-37 0 -57 14 -50 34 9 22 192 24 200 2z m414 -1 c9 -24 -2 -29 -72 -33 -61 -4 -65 -6 -65 -28 0 -22 4 -24 54 -24 57 0 70 -7 60 -34 -4 -11 -19 -16 -44 -16 -53 0 -70 -8 -70 -36 0 -22 4 -23 68 -26 59 -3 67 -5 67 -23 0 -18 -8 -20 -78 -23 -50 -2 -84 1 -93 9 -10 9 -14 39 -14 124 0 61 3 115 7 118 3 4 44 7 90 7 66 0 85 -3 90 -15z m661 -7 c2 -12 -7 -18 -37 -23 l-41 -7 0 -91 c0 -98 -8 -124 -34 -114 -13 5 -16 24 -16 107 l0 100 -34 0 c-37 0 -51 12 -42 36 9 23 199 16 204 -8z m250 -1 c38 -34 37 -79 -3 -133 -14 -19 -14 -23 5 -47 25 -31 26 -57 3 -57 -24 0 -34 9 -63 52 -39 59 -61 51 -72 -26 -3 -22 -17 -29 -36 -18 -15 10 -21 219 -8 241 13 20 149 11 174 -12z m619 -22 c51 -59 44 -127 -18 -188 -22 -21 -138 -34 -167 -18 -21 11 -22 19 -22 126 0 81 4 115 13 119 6 3 46 4 87 2 72 -3 75 -4 107 -41z m161 -83 c2 -106 0 -123 -14 -129 -26 -10 -34 16 -34 124 0 113 5 135 29 131 14 -3 16 -22 19 -126z m160 110 c38 -41 69 -79 87 -110 32 -53 44 -41 47 46 3 69 5 77 23 77 19 0 20 -8 23 -121 2 -104 0 -123 -13 -128 -24 -9 -49 8 -88 61 -19 27 -47 59 -61 72 l-26 24 0 -77 c0 -61 -3 -78 -16 -83 -9 -3 -20 0 -25 8 -10 16 -12 209 -3 233 8 21 30 20 52 -2z m1152 -87 l0 -105 44 0 c53 0 76 -8 76 -25 0 -16 -32 -25 -93 -25 -80 0 -85 5 -86 113 -2 107 9 147 39 147 19 0 20 -6 20 -105z m-145 -115 c12 -37 -20 -55 -45 -25 -10 12 -10 18 0 30 17 21 37 19 45 -5z m376 4 c11 -14 10 -18 -6 -30 -26 -19 -39 -13 -43 19 -3 21 1 27 16 27 11 0 26 -7 33 -16z"/> <path d="M3193 418 c-36 -40 -45 -65 -32 -90 29 -58 81 -72 130 -37 23 16 29 28 29 59 0 75 -81 118 -127 68z"/> <path d="M5934 393 c-3 -10 -10 -26 -15 -35 -14 -26 -12 -28 26 -28 34 0 46 12 25 25 -5 3 -10 15 -10 25 0 26 -19 35 -26 13z"/> <path d="M5609 429 c-6 -3 -9 -21 -7 -40 3 -31 6 -34 39 -37 43 -4 64 17 55 52 -4 18 -14 25 -41 28 -19 2 -40 1 -46 -3z"/> <path d="M6207 434 c-4 -4 -7 -43 -7 -86 l0 -78 28 0 c16 0 43 7 60 16 29 14 32 20 32 64 0 39 -4 51 -23 63 -28 18 -80 30 -90 21z"/> </g> </svg> 